<?xml version="1.0" encoding="UTF-8"?>
<svg version="1.1" xmlns="http://www.w3.org/2000/svg" width="150" height="25">
<path d="M0 0 C49.5 0 99 0 150 0 C150 8.25 150 16.5 150 25 C100.5 25 51 25 0 25 C0 16.75 0 8.5 0 0 Z " fill="#050921" transform="translate(0,0)"/>
<path d="M0 0 C49.5 0 99 0 150 0 C150 8.25 150 16.5 150 25 C100.5 25 51 25 0 25 C0 16.75 0 8.5 0 0 Z M3 1 C0.96879293 4.04681061 0.75340125 4.60118324 0.8046875 8.01171875 C0.81113281 8.76904297 0.81757813 9.52636719 0.82421875 10.30664062 C0.84097656 11.09232422 0.85773437 11.87800781 0.875 12.6875 C0.88402344 13.48478516 0.89304688 14.28207031 0.90234375 15.10351562 C0.92588415 17.069139 0.96175453 19.03460775 1 21 C1.66 21.33 2.32 21.66 3 22 C3 16.06 3 10.12 3 4 C6.61867559 2.7937748 9.92506251 2.89183082 13.6875 2.9375 C14.38939453 2.94201172 15.09128906 2.94652344 15.81445312 2.95117188 C17.54300538 2.96293073 19.27151365 2.98086546 21 3 C21 3.99 21 4.98 21 6 C20.01 6.495 20.01 6.495 19 7 C19.66 7 20.32 7 21 7 C21.29296875 13.0546875 21.29296875 13.0546875 21 15 C20.01 15.66 19.02 16.32 18 17 C18 18.65 18 20.3 18 22 C13.38 22.33 8.76 22.66 4 23 C4 23.33 4 23.66 4 24 C46.57 24 89.14 24 133 24 C133 16.41 133 8.82 133 1 C116.08466385 0.93062026 99.16938432 0.87705072 82.25393867 0.84456348 C74.40020028 0.82907968 66.54655179 0.80796142 58.69287109 0.77368164 C51.84940052 0.74382541 45.00599505 0.72443601 38.16246116 0.71773452 C34.5372022 0.7138158 30.91212948 0.70457528 27.28693008 0.68280983 C23.24475004 0.65873663 19.20289596 0.65802756 15.16064453 0.65942383 C13.95223907 0.648638 12.74383362 0.63785217 11.49880981 0.6267395 C10.40222046 0.63086349 9.3056311 0.63498749 8.17581177 0.63923645 C6.74058009 0.63508838 6.74058009 0.63508838 5.27635384 0.63085651 C4.52515707 0.75267386 3.7739603 0.87449121 3 1 Z " fill="#0B021E" transform="translate(0,0)"/>
<path d="M0 0 C0.90013321 0.0028299 1.80026642 0.00565979 2.72767639 0.00857544 C5.58030945 0.01969972 8.43261936 0.04478967 11.28515625 0.0703125 C13.22851107 0.08035233 15.17187084 0.08947642 17.11523438 0.09765625 C21.85949801 0.11961362 26.60352249 0.15408949 31.34765625 0.1953125 C31.01765625 0.8553125 30.68765625 1.5153125 30.34765625 2.1953125 C29.68765625 1.8653125 29.02765625 1.5353125 28.34765625 1.1953125 C29.09915648 4.47304754 29.09915648 4.47304754 32.34765625 6.1953125 C32.66015625 9.6953125 32.66015625 9.6953125 32.34765625 13.1953125 C30.34765625 15.1953125 30.34765625 15.1953125 27.34765625 15.2578125 C26.35765625 15.2371875 25.36765625 15.2165625 24.34765625 15.1953125 C23.68765625 15.5253125 23.02765625 15.8553125 22.34765625 16.1953125 C20.0703125 16.14453125 20.0703125 16.14453125 17.41015625 15.8828125 C16.53488281 15.80417969 15.65960938 15.72554687 14.7578125 15.64453125 C12.34765625 15.1953125 12.34765625 15.1953125 9.34765625 13.1953125 C9.34765625 13.8553125 9.34765625 14.5153125 9.34765625 15.1953125 C6.87265625 14.7003125 6.87265625 14.7003125 4.34765625 14.1953125 C4.34765625 13.5353125 4.34765625 12.8753125 4.34765625 12.1953125 C3.68765625 12.1953125 3.02765625 12.1953125 2.34765625 12.1953125 C2.01765625 13.1853125 1.68765625 14.1753125 1.34765625 15.1953125 C-4.59234375 15.6903125 -4.59234375 15.6903125 -10.65234375 16.1953125 C-10.98234375 14.5453125 -11.31234375 12.8953125 -11.65234375 11.1953125 C-12.64234375 11.1953125 -13.63234375 11.1953125 -14.65234375 11.1953125 C-14.65234375 12.5153125 -14.65234375 13.8353125 -14.65234375 15.1953125 C-15.31234375 15.1953125 -15.97234375 15.1953125 -16.65234375 15.1953125 C-16.65234375 10.9053125 -16.65234375 6.6153125 -16.65234375 2.1953125 C-10.96958306 0.25747434 -5.97782931 -0.0716938 0 0 Z " fill="#030C1F" transform="translate(48.65234375,2.8046875)"/>
<path d="M0 0 C5.28 0 10.56 0 16 0 C16 8.25 16 16.5 16 25 C10.72 25 5.44 25 0 25 C0 16.75 0 8.5 0 0 Z " fill="#4455BC" transform="translate(134,0)"/>
<path d="M0 0 C44.22 0 88.44 0 134 0 C134 8.25 134 16.5 134 25 C89.78 25 45.56 25 0 25 C0 16.75 0 8.5 0 0 Z M3 1 C0.43787713 4.84318431 0.66891461 8.04693955 0.6875 12.5 C0.67138672 13.27214844 0.65527344 14.04429688 0.63867188 14.83984375 C0.55102132 19.01154484 0.55102132 19.01154484 2.19407368 22.7215929 C4.64697094 24.45798781 6.26395069 24.36949286 9.25810242 24.36076355 C10.89242722 24.36694954 10.89242722 24.36694954 12.55976868 24.3732605 C13.75522812 24.36247467 14.95068756 24.35168884 16.18237305 24.34057617 C17.44102173 24.34101425 18.69967041 24.34145233 19.99645996 24.34190369 C23.44877972 24.34276534 26.90078754 24.32511241 30.35303473 24.30418181 C33.96050423 24.28544318 37.56798068 24.2836668 41.17549133 24.28010559 C48.00720058 24.27077682 54.838766 24.24615188 61.67041188 24.21605712 C69.44782225 24.18253892 77.22523943 24.16603361 85.00270402 24.15097082 C101.00188828 24.11960297 117.00091996 24.06622297 133 24 C133 16.41 133 8.82 133 1 C116.08466385 0.93062026 99.16938432 0.87705072 82.25393867 0.84456348 C74.40020028 0.82907968 66.54655179 0.80796142 58.69287109 0.77368164 C51.84940052 0.74382541 45.00599505 0.72443601 38.16246116 0.71773452 C34.5372022 0.7138158 30.91212948 0.70457528 27.28693008 0.68280983 C23.24475004 0.65873663 19.20289596 0.65802756 15.16064453 0.65942383 C13.95223907 0.648638 12.74383362 0.63785217 11.49880981 0.6267395 C10.40222046 0.63086349 9.3056311 0.63498749 8.17581177 0.63923645 C6.74058009 0.63508838 6.74058009 0.63508838 5.27635384 0.63085651 C4.52515707 0.75267386 3.7739603 0.87449121 3 1 Z " fill="#641B75" transform="translate(0,0)"/>
<path d="M0 0 C1.13115234 0.07831055 1.13115234 0.07831055 2.28515625 0.15820312 C4.1487937 0.28795004 6.01194996 0.42457488 7.875 0.5625 C4.875 2.5625 4.875 2.5625 1.875 3.5625 C1.545 7.5225 1.215 11.4825 0.875 15.5625 C1.535 15.5625 2.195 15.5625 2.875 15.5625 C2.875 14.2425 2.875 12.9225 2.875 11.5625 C3.865 11.5625 4.855 11.5625 5.875 11.5625 C6.205 13.2125 6.535 14.8625 6.875 16.5625 C8.050625 16.253125 8.050625 16.253125 9.25 15.9375 C10.549375 15.751875 10.549375 15.751875 11.875 15.5625 C12.535 16.2225 13.195 16.8825 13.875 17.5625 C12.73510742 19.04418945 12.73510742 19.04418945 10.875 20.5625 C8.23950195 20.90307617 8.23950195 20.90307617 5.11328125 20.85546875 C3.99501953 20.84580078 2.87675781 20.83613281 1.72460938 20.82617188 C0.55736328 20.80103516 -0.60988281 20.77589844 -1.8125 20.75 C-2.99134766 20.73646484 -4.17019531 20.72292969 -5.38476562 20.70898438 C-8.29863411 20.67359326 -11.21158945 20.62421809 -14.125 20.5625 C-13.52638258 18.21078869 -12.85575648 15.8765622 -12.125 13.5625 C-11.465 13.2325 -10.805 12.9025 -10.125 12.5625 C-10.125 9.9225 -10.125 7.2825 -10.125 4.5625 C-10.785 4.2325 -11.445 3.9025 -12.125 3.5625 C-11.465 3.5625 -10.805 3.5625 -10.125 3.5625 C-10.125 2.5725 -10.125 1.5825 -10.125 0.5625 C-6.91158631 -1.04420684 -3.49541032 -0.26260855 0 0 Z " fill="#030B1D" transform="translate(31.125,2.4375)"/>
<path d="M0 0 C2.27635384 -0.36914349 2.27635384 -0.36914349 5.17581177 -0.36076355 C6.27240112 -0.36488754 7.36899048 -0.36901154 8.49880981 -0.3732605 C9.70721527 -0.36247467 10.91562073 -0.35168884 12.16064453 -0.34057617 C13.42890076 -0.34101425 14.69715698 -0.34145233 16.00384521 -0.34190369 C19.48721345 -0.34276647 22.97027346 -0.32509529 26.45356989 -0.30418181 C30.09174199 -0.28546198 33.72992071 -0.28366829 37.36813354 -0.28010559 C44.26008253 -0.27077127 51.1518892 -0.24613886 58.04377544 -0.21605712 C65.88887618 -0.18255614 73.73398361 -0.16603795 81.57913804 -0.15097082 C97.71950875 -0.11959041 113.85973623 -0.06680312 130 0 C130 0.33 130 0.66 130 1 C129.02236207 1.00634791 129.02236207 1.00634791 128.02497387 1.01282406 C112.1763422 1.11606671 96.32775803 1.22469486 80.47920513 1.33933926 C72.81500971 1.39464981 65.15080964 1.44812826 57.48657227 1.49731445 C50.80750295 1.54018283 44.1284676 1.58646754 37.44945079 1.63687855 C33.91200221 1.6634581 30.37456027 1.68831064 26.83707237 1.70907402 C22.89092898 1.73229995 18.94486556 1.76315215 14.9987793 1.79467773 C13.82202133 1.8004332 12.64526337 1.80618866 11.43284607 1.81211853 C10.36012451 1.82190735 9.28740295 1.83169617 8.18217468 1.84178162 C7.24839839 1.84823417 6.3146221 1.85468672 5.35254955 1.8613348 C2.84648322 1.90680617 2.84648322 1.90680617 0 3 C0 8.94 0 14.88 0 21 C-0.66 20.67 -1.32 20.34 -2 20 C-2.05392397 17.22890693 -2.09363455 14.45886182 -2.125 11.6875 C-2.14175781 10.90181641 -2.15851562 10.11613281 -2.17578125 9.30664062 C-2.18544922 8.1706543 -2.18544922 8.1706543 -2.1953125 7.01171875 C-2.20578613 6.31522217 -2.21625977 5.61872559 -2.22705078 4.90112305 C-2 3 -2 3 0 0 Z " fill="#230036" transform="translate(3,1)"/>
<path d="M0 0 C1.05960938 0.00676758 1.05960938 0.00676758 2.140625 0.01367188 C3.88545275 0.02546125 5.630237 0.04339676 7.375 0.0625 C7.705 2.0425 8.035 4.0225 8.375 6.0625 C9.035 6.0625 9.695 6.0625 10.375 6.0625 C10.705 4.0825 11.035 2.1025 11.375 0.0625 C12.035 0.0625 12.695 0.0625 13.375 0.0625 C13.375 2.7025 13.375 5.3425 13.375 8.0625 C12.38757813 8.02769531 11.40015625 7.99289063 10.3828125 7.95703125 C8.46082031 7.91642578 8.46082031 7.91642578 6.5 7.875 C5.22382812 7.84019531 3.94765625 7.80539063 2.6328125 7.76953125 C1.55773437 7.86621094 0.48265625 7.96289062 -0.625 8.0625 C-1.615 9.5475 -1.615 9.5475 -2.625 11.0625 C-3.945 10.7325 -5.265 10.4025 -6.625 10.0625 C-6.295 9.7325 -5.965 9.4025 -5.625 9.0625 C-6.615 8.4746875 -6.615 8.4746875 -7.625 7.875 C-9.625 6.0625 -9.625 6.0625 -9.875 3.375 C-9.7925 2.611875 -9.71 1.84875 -9.625 1.0625 C-6.55966836 -0.47016582 -3.35745728 -0.04026471 0 0 Z " fill="#181E2E" transform="translate(92.625,9.9375)"/>
<path d="M0 0 C3.63 0 7.26 0 11 0 C11.33 2.64 11.66 5.28 12 8 C11.01 8.66 10.02 9.32 9 10 C8.27034634 12.56282742 8.27034634 12.56282742 8 15 C6.35 15 4.7 15 3 15 C3 14.34 3 13.68 3 13 C1.68 12.34 0.36 11.68 -1 11 C-0.67 10.34 -0.34 9.68 0 9 C1.485 9.99 1.485 9.99 3 11 C3 10.34 3 9.68 3 9 C2.01 8.67 1.02 8.34 0 8 C0 5.36 0 2.72 0 0 Z " fill="#E8E9EA" transform="translate(10,7)"/>
<path d="M0 0 C-0.47566406 0.82757813 -0.47566406 0.82757813 -0.9609375 1.671875 C-2.12709975 4.28477989 -2.40045711 6.40579002 -2.625 9.25 C-2.69976563 10.14203125 -2.77453125 11.0340625 -2.8515625 11.953125 C-2.90054687 12.62859375 -2.94953125 13.3040625 -3 14 C-2.01 13.67 -1.02 13.34 0 13 C5 18.875 5 18.875 5 20 C1.37 20 -2.26 20 -6 20 C-6.9048441 16.3806236 -7.13415117 13.62999811 -7.125 9.9375 C-7.12757812 8.89464844 -7.13015625 7.85179687 -7.1328125 6.77734375 C-7 4 -7 4 -6 1 C-4 0 -4 0 0 0 Z " fill="#04091F" transform="translate(9,3)"/>
<path d="M0 0 C16.17 0 32.34 0 49 0 C49 0.33 49 0.66 49 1 C33.82 1.33 18.64 1.66 3 2 C1.37158299 5.25683403 1.73204423 8.79958335 1.6875 12.375 C1.65849609 13.14328125 1.62949219 13.9115625 1.59960938 14.703125 C1.53104487 19.50238395 1.53104487 19.50238395 4.01953125 23.5390625 C4.99986328 24.26222656 4.99986328 24.26222656 6 25 C4.02 25 2.04 25 0 25 C0 16.75 0 8.5 0 0 Z " fill="#743481" transform="translate(0,0)"/>
<path d="M0 0 C6.875 0.875 6.875 0.875 8 2 C8.1875 5.4375 8.1875 5.4375 8 9 C6 11 6 11 2.875 11.125 C1.451875 11.063125 1.451875 11.063125 0 11 C0 7.37 0 3.74 0 0 Z " fill="#9BA2B0" transform="translate(73,7)"/>
<path d="M0 0 C0.226875 0.5775 0.45375 1.155 0.6875 1.75 C2.33038023 4.5663661 4.39533227 6.08077114 7 8 C6.67 8.33 6.34 8.66 6 9 C6.99 9.33 7.98 9.66 9 10 C9.66 8.68 10.32 7.36 11 6 C12.65 6 14.3 6 16 6 C16.33 6.99 16.66 7.98 17 9 C14.50935112 9.68707555 12.62113708 10 10 10 C10 10.66 10 11.32 10 12 C6.04 12 2.08 12 -2 12 C-1.34 11.34 -0.68 10.68 0 10 C-0.66 9.34 -1.32 8.68 -2 8 C-1.7578125 6.0546875 -1.7578125 6.0546875 -1.125 3.875 C-0.92132813 3.15054687 -0.71765625 2.42609375 -0.5078125 1.6796875 C-0.34023437 1.12539062 -0.17265625 0.57109375 0 0 Z " fill="#060D20" transform="translate(81,11)"/>
<path d="M0 0 C2.64 0 5.28 0 8 0 C8.33 1.98 8.66 3.96 9 6 C9.66 6 10.32 6 11 6 C11.33 4.02 11.66 2.04 12 0 C12.66 0 13.32 0 14 0 C14 2.64 14 5.28 14 8 C9.38 8 4.76 8 0 8 C-0.33 7.34 -0.66 6.68 -1 6 C0.32 5.67 1.64 5.34 3 5 C1.68 4.34 0.36 3.68 -1 3 C-0.67 2.01 -0.34 1.02 0 0 Z " fill="#606773" transform="translate(92,10)"/>
<path d="M0 0 C0.66 0 1.32 0 2 0 C2 0.66 2 1.32 2 2 C2.66 2 3.32 2 4 2 C4 1.34 4 0.68 4 0 C5.65 0 7.3 0 9 0 C9 0.66 9 1.32 9 2 C10.32 1.34 11.64 0.68 13 0 C13 2.64 13 5.28 13 8 C11.68 7.34 10.36 6.68 9 6 C9 6.66 9 7.32 9 8 C7.35 7.67 5.7 7.34 4 7 C4 6.34 4 5.68 4 5 C3.34 5 2.68 5 2 5 C1.34 3.35 0.68 1.7 0 0 Z " fill="#626876" transform="translate(49,10)"/>
<path d="M0 0 C0.99 0.66 1.98 1.32 3 2 C3.6959707 10.63003663 3.6959707 10.63003663 1 14 C-1.125 14.75 -1.125 14.75 -3 15 C-3 13.35 -3 11.7 -3 10 C-2.34 9.67 -1.68 9.34 -1 9 C-0.53348793 6.87423218 -0.53348793 6.87423218 -0.375 4.4375 C-0.30023437 3.61121094 -0.22546875 2.78492188 -0.1484375 1.93359375 C-0.09945313 1.29550781 -0.05046875 0.65742187 0 0 Z " fill="#020309" transform="translate(22,6)"/>
<path d="M0 0 C0 0.99 0 1.98 0 3 C-0.66 3 -1.32 3 -2 3 C-2 3.66 -2 4.32 -2 5 C-4.31 5 -6.62 5 -9 5 C-9 4.34 -9 3.68 -9 3 C-9.66 2.67 -10.32 2.34 -11 2 C-7.17010894 0.19769832 -4.21878192 -0.19622241 0 0 Z " fill="#15171A" transform="translate(21,3)"/>
<path d="M0 0 C1.2065625 0.0309375 1.2065625 0.0309375 2.4375 0.0625 C2.7675 1.3825 3.0975 2.7025 3.4375 4.0625 C1.7875 4.0625 0.1375 4.0625 -1.5625 4.0625 C-1.5625 4.7225 -1.5625 5.3825 -1.5625 6.0625 C0.0875 6.0625 1.7375 6.0625 3.4375 6.0625 C3.1075 6.7225 2.7775 7.3825 2.4375 8.0625 C-2.4375 7.1875 -2.4375 7.1875 -3.5625 6.0625 C-3.6875 3.5625 -3.6875 3.5625 -3.5625 1.0625 C-2.5625 0.0625 -2.5625 0.0625 0 0 Z " fill="#9FA7B3" transform="translate(44.5625,9.9375)"/>
<path d="M0 0 C0.66 0 1.32 0 2 0 C2 1.32 2 2.64 2 4 C5.0745356 3.2236068 5.0745356 3.2236068 7 1 C7 3.97 7 6.94 7 10 C6.34 8.68 5.68 7.36 5 6 C4.01 6 3.02 6 2 6 C2 7.32 2 8.64 2 10 C1.34 10 0.68 10 0 10 C0 6.7 0 3.4 0 0 Z " fill="#A0A7B2" transform="translate(32,8)"/>
<path d="M0 0 C0 0.99 0 1.98 0 3 C-1.65 3 -3.3 3 -5 3 C-4.67 3.66 -4.34 4.32 -4 5 C-1.97536745 5.65213292 -1.97536745 5.65213292 0 6 C-2.375 6.625 -2.375 6.625 -5 7 C-7 5 -7 5 -7.125 2.375 C-7.08375 1.59125 -7.0425 0.8075 -7 0 C-4.3333581 -1.33332095 -2.83319697 -0.67102033 0 0 Z " fill="#9198A3" transform="translate(90,11)"/>
<path d="M0 0 C0.66 0 1.32 0 2 0 C2.12375 1.134375 2.2475 2.26875 2.375 3.4375 C2.684375 5.2009375 2.684375 5.2009375 3 7 C3.66 7.33 4.32 7.66 5 8 C5 8.66 5 9.32 5 10 C2.69 9.67 0.38 9.34 -2 9 C-2.125 5.625 -2.125 5.625 -2 2 C-1.34 1.34 -0.68 0.68 0 0 Z " fill="#151517" transform="translate(8,8)"/>
<path d="M0 0 C0.99 0.33 1.98 0.66 3 1 C2.34 1 1.68 1 1 1 C1.66 1.99 2.32 2.98 3 4 C2.625 6.6875 2.625 6.6875 2 9 C1.01 8.67 0.02 8.34 -1 8 C-2.33106622 7.65772583 -3.66400079 7.32248257 -5 7 C-5 6.34 -5 5.68 -5 5 C-3.35 5 -1.7 5 0 5 C-0.2784375 4.0409375 -0.2784375 4.0409375 -0.5625 3.0625 C-0.706875 2.381875 -0.85125 1.70125 -1 1 C-0.67 0.67 -0.34 0.34 0 0 Z " fill="#29303D" transform="translate(48,9)"/>
<path d="M0 0 C2.475 0.495 2.475 0.495 5 1 C5 2.65 5 4.3 5 6 C3.35 6.33 1.7 6.66 0 7 C0 4.69 0 2.38 0 0 Z " fill="#0A1220" transform="translate(75,9)"/>
<path d="M0 0 C0.33 0 0.66 0 1 0 C1.02578125 1.10859375 1.0515625 2.2171875 1.078125 3.359375 C1.13441656 4.82295547 1.19176367 6.28649562 1.25 7.75 C1.26417969 8.47960938 1.27835937 9.20921875 1.29296875 9.9609375 C1.45955152 13.62575849 1.69935965 15.63051072 4.046875 18.515625 C4.69140625 19.00546875 5.3359375 19.4953125 6 20 C4.02 20 2.04 20 0 20 C0 13.4 0 6.8 0 0 Z " fill="#642A69" transform="translate(0,5)"/>
<path d="M0 0 C0.33 0 0.66 0 1 0 C1.33 1.98 1.66 3.96 2 6 C2.66 6 3.32 6 4 6 C4.33 4.02 4.66 2.04 5 0 C5.66 0 6.32 0 7 0 C7 2.64 7 5.28 7 8 C5.00045254 8.04254356 2.99958364 8.04080783 1 8 C0 7 0 7 -0.0625 3.4375 C-0.041875 2.303125 -0.02125 1.16875 0 0 Z " fill="#969FAE" transform="translate(99,10)"/>
<path d="M0 0 C0.33 0 0.66 0 1 0 C1.33 1.98 1.66 3.96 2 6 C2.66 6 3.32 6 4 6 C4.33 4.02 4.66 2.04 5 0 C5.66 0 6.32 0 7 0 C7 2.64 7 5.28 7 8 C5.00045254 8.04254356 2.99958364 8.04080783 1 8 C0 7 0 7 -0.0625 3.4375 C-0.041875 2.303125 -0.02125 1.16875 0 0 Z " fill="#989FAB" transform="translate(64,10)"/>
<path d="M0 0 C0.66 0 1.32 0 2 0 C2 0.66 2 1.32 2 2 C3.32 1.34 4.64 0.68 6 0 C6 2.64 6 5.28 6 8 C4.68 7.34 3.36 6.68 2 6 C2 6.66 2 7.32 2 8 C1.34 8 0.68 8 0 8 C0.185625 7.236875 0.37125 6.47375 0.5625 5.6875 C1.22819173 2.91032625 1.22819173 2.91032625 0 0 Z " fill="#9CA3B1" transform="translate(56,10)"/>
<path d="M0 0 C1.485 0.99 1.485 0.99 3 2 C3.125 4.5 3.125 4.5 3 7 C3.33 7.66 3.66 8.32 4 9 C2.35 9.33 0.7 9.66 -1 10 C-1.125 3.375 -1.125 3.375 0 0 Z " fill="#161C2A" transform="translate(39,9)"/>
<path d="M0 0 C1.98 0 3.96 0 6 0 C6.33 0.66 6.66 1.32 7 2 C6.01 3.485 6.01 3.485 5 5 C4.01 5 3.02 5 2 5 C2 3.68 2 2.36 2 1 C1.34 0.67 0.68 0.34 0 0 Z " fill="#4F525F" transform="translate(32,7)"/>
<path d="M0 0 C0.61875 0.268125 1.2375 0.53625 1.875 0.8125 C2.205 1.8025 2.535 2.7925 2.875 3.8125 C0.565 3.8125 -1.745 3.8125 -4.125 3.8125 C-4.455 3.1525 -4.785 2.4925 -5.125 1.8125 C-2.125 -0.1875 -2.125 -0.1875 0 0 Z " fill="#020B16" transform="translate(11.125,19.1875)"/>
<path d="M0 0 C0.66 0 1.32 0 2 0 C2.33 2.64 2.66 5.28 3 8 C2.01 8 1.02 8 0 8 C-1.125 2.25 -1.125 2.25 0 0 Z " fill="#141B29" transform="translate(62,10)"/>
<path d="M0 0 C1.78257471 3.23091667 2 5.32518002 2 9 C0.68 8.67 -0.64 8.34 -2 8 C-1.34 5.36 -0.68 2.72 0 0 Z " fill="#1B2132" transform="translate(81,11)"/>
<path d="M0 0 C0.33 0.99 0.66 1.98 1 3 C1.66 3 2.32 3 3 3 C3.33 2.01 3.66 1.02 4 0 C4 1.98 4 3.96 4 6 C2.68 6 1.36 6 0 6 C0 4.02 0 2.04 0 0 Z " fill="#222937" transform="translate(100,10)"/>
<path d="M0 0 C1.65 0 3.3 0 5 0 C5.33 1.32 5.66 2.64 6 4 C3.69 3.34 1.38 2.68 -1 2 C-0.67 1.34 -0.34 0.68 0 0 Z " fill="#737A87" transform="translate(42,10)"/>
<path d="M0 0 C2 3 2 3 2 6 C0.68 6 -0.64 6 -2 6 C-1.125 1.125 -1.125 1.125 0 0 Z " fill="#00081B" transform="translate(52,17)"/>
<path d="M0 0 C0.66 1.32 1.32 2.64 2 4 C2.66 2.68 3.32 1.36 4 0 C4 1.98 4 3.96 4 6 C2.68 6 1.36 6 0 6 C0 4.02 0 2.04 0 0 Z " fill="#2A2F3B" transform="translate(65,10)"/>
<path d="M0 0 C0.99 0.33 1.98 0.66 3 1 C3 1.66 3 2.32 3 3 C1.02 3.99 -0.96 4.98 -3 6 C-2.42655063 3.13275314 -2.1385485 2.1385485 0 0 Z " fill="#09060F" transform="translate(9,4)"/>
</svg>
