<?xml version="1.0" encoding="UTF-8"?>
<svg version="1.1" xmlns="http://www.w3.org/2000/svg" width="500" height="100">
<path d="M0 0 C165 0 330 0 500 0 C500 33 500 66 500 100 C335 100 170 100 0 100 C0 67 0 34 0 0 Z " fill="#020B20" transform="translate(0,0)"/>
<path d="M0 0 C165 0 330 0 500 0 C500 33 500 66 500 100 C335 100 170 100 0 100 C0 67 0 34 0 0 Z M1 1 C1 33.34 1 65.68 1 99 C152.14 99 303.28 99 459 99 C459 66.99 459 34.98 459 2 C457.30928499 0.30928499 455.20997985 0.87670571 452.95362851 0.86899152 C452.22306966 0.87161854 451.4925108 0.87424555 450.7398138 0.87695217 C449.96707319 0.87579833 449.19433257 0.87464448 448.39817557 0.87345567 C445.77551548 0.87078178 443.15291523 0.87531747 440.53025818 0.87974548 C438.64436121 0.87930994 436.7584643 0.87843534 434.87256771 0.87715632 C429.66430018 0.87490806 424.45605301 0.87893714 419.24778807 0.88393438 C413.64107297 0.88823398 408.03435911 0.88679281 402.42764282 0.8860321 C392.70500349 0.88550656 382.98237085 0.88865657 373.2597332 0.89426994 C359.20225474 0.90238078 345.14477954 0.90499974 331.087299 0.90625793 C308.2825624 0.90844911 285.47783017 0.91510241 262.6730957 0.92456055 C240.51424173 0.93374022 218.3553887 0.94082617 196.1965332 0.94506836 C195.17255516 0.94526565 195.17255516 0.94526565 194.1278907 0.94546692 C187.27261656 0.94678541 180.41734242 0.94806123 173.56206827 0.94930578 C116.04137572 0.9597525 58.5206896 0.97823304 1 1 Z " fill="#6A44C6" transform="translate(0,0)"/>
<path d="M0 0 C4.75577272 3.66378199 8.25631402 7.95320099 10.0703125 13.71484375 C11.25811547 23.07241347 11.04697515 31.95348323 5.0703125 39.71484375 C1.30187323 43.87813788 -2.01805539 47.17824526 -7.4921875 48.71484375 C-8.2965625 48.71484375 -9.1009375 48.71484375 -9.9296875 48.71484375 C-10.02056641 47.57595703 -10.02056641 47.57595703 -10.11328125 46.4140625 C-10.19707031 45.42019531 -10.28085938 44.42632812 -10.3671875 43.40234375 C-10.44839844 42.41621094 -10.52960938 41.43007812 -10.61328125 40.4140625 C-10.84781309 37.62108776 -10.84781309 37.62108776 -11.9296875 34.71484375 C-11.30320313 34.46089844 -10.67671875 34.20695312 -10.03125 33.9453125 C-9.21398437 33.60113281 -8.39671875 33.25695313 -7.5546875 32.90234375 C-6.74257812 32.56589844 -5.93046875 32.22945312 -5.09375 31.8828125 C-2.62821292 30.77045293 -2.62821292 30.77045293 -0.9296875 27.71484375 C-0.64976507 24.77529735 -0.64976507 24.77529735 -0.7421875 21.58984375 C-0.75185547 19.97722656 -0.75185547 19.97722656 -0.76171875 18.33203125 C-0.63571053 15.78869849 -0.63571053 15.78869849 -1.9296875 14.71484375 C-2.38428608 12.06021254 -2.63211988 9.39295237 -2.9296875 6.71484375 C-3.6515625 6.85921875 -4.3734375 7.00359375 -5.1171875 7.15234375 C-6.509375 7.43078125 -6.509375 7.43078125 -7.9296875 7.71484375 C-8.68765625 7.88757812 -9.445625 8.0603125 -10.2265625 8.23828125 C-13.19042279 8.76081153 -15.9834519 8.88332519 -18.9921875 8.90234375 C-20.01441406 8.91652344 -21.03664063 8.93070313 -22.08984375 8.9453125 C-24.95245191 8.71299629 -26.45086405 8.06353694 -28.9296875 6.71484375 C-29.9196875 6.71484375 -30.9096875 6.71484375 -31.9296875 6.71484375 C-33.662246 14.12462517 -34.66890559 20.96272747 -33.4921875 28.52734375 C-30.92829058 32.11679943 -26.97542169 33.22474824 -22.9296875 34.71484375 C-23.2596875 36.03484375 -23.5896875 37.35484375 -23.9296875 38.71484375 C-27.1171875 39.02734375 -27.1171875 39.02734375 -30.9296875 38.71484375 C-33.7421875 36.27734375 -33.7421875 36.27734375 -35.9296875 33.71484375 C-36.5896875 33.38484375 -37.2496875 33.05484375 -37.9296875 32.71484375 C-37.3315625 33.45734375 -36.7334375 34.19984375 -36.1171875 34.96484375 C-33.9296875 37.71484375 -33.9296875 37.71484375 -32.5546875 39.96484375 C-30.27084704 42.42436424 -28.18612239 42.42538287 -24.9296875 42.71484375 C-24.9296875 44.69484375 -24.9296875 46.67484375 -24.9296875 48.71484375 C-31.88055088 47.89709512 -36.15745194 43.78063826 -40.53515625 38.69140625 C-45.7733063 31.26702551 -45.60434656 24.54242495 -44.9296875 15.71484375 C-43.66357366 8.49457291 -38.92548714 2.60950445 -33.05859375 -1.640625 C-22.44897746 -7.96076202 -10.01387037 -6.66915658 0 0 Z " fill="#030303" transform="translate(78.9296875,28.28515625)"/>
<path d="M0 0 C2.3048173 0.37375416 4.52449686 0.85766536 6.76171875 1.52734375 C9.70099137 2.14802785 12.49741311 2.17028333 15.5 2.1875 C16.6240625 2.20167969 17.748125 2.21585938 18.90625 2.23046875 C21.9141168 2.00639787 23.42157037 1.43439666 26 0 C28.25 0.375 28.25 0.375 30 1 C30.22786458 3.05078125 30.45572917 5.1015625 30.68359375 7.15234375 C30.81886614 9.01140229 30.81886614 9.01140229 32 10 C33.11571217 20.39206188 33.11571217 20.39206188 29.875 25.0625 C27.00152027 26.99897547 24.16898016 28.59975295 21 30 C21.33 30.66 21.66 31.32 22 32 C22.07065617 34.04055005 22.08421976 36.08334257 22.0625 38.125 C22.05347656 39.22070312 22.04445313 40.31640625 22.03515625 41.4453125 C22.02355469 42.28835937 22.01195313 43.13140625 22 44 C19.68756208 44.02685412 17.3750373 44.04632841 15.0625 44.0625 C13.77472656 44.07410156 12.48695312 44.08570313 11.16015625 44.09765625 C8 44 8 44 7 43 C6.95919217 41.00041636 6.95745644 38.99954746 7 37 C5.63875 37.1546875 5.63875 37.1546875 4.25 37.3125 C1 37 1 37 -1.375 34.625 C-3 32 -3 32 -3 30 C-3.99 29.67 -4.98 29.34 -6 29 C-6 28.34 -6 27.68 -6 27 C-2.34683329 28.24976756 -1.21934164 28.67098753 1 32 C4.56769552 32.73606499 4.56769552 32.73606499 8 33 C7.80076267 31.04781528 7.80076267 31.04781528 7 29 C5.21641879 27.83491597 5.21641879 27.83491597 3.0625 27.0625 C-0.82585366 25.25396341 -0.82585366 25.25396341 -2.5 22.8125 C-3.81802514 15.39860859 -2.96815654 8.2405175 -1 1 C-0.67 0.67 -0.34 0.34 0 0 Z " fill="#F7F7F7" transform="translate(47,34)"/>
<path d="M0 0 C13.77777778 0 13.77777778 0 18 4 C20.36573729 7.01093837 20.36546655 10.20188013 20.24609375 13.97265625 C19.85242487 17.21573794 18.862112 19.33097279 17 22 C11.30311357 26.27266482 7.88480602 25 0 25 C0 16.75 0 8.5 0 0 Z " fill="#071224" transform="translate(207,38)"/>
<path d="M0 0 C11 0 11 0 14.25 1.5625 C16 4 16 4 15.8125 7.75 C15.544375 8.8225 15.27625 9.895 15 11 C14.01 11.33 13.02 11.66 12 12 C12.28875 12.53109375 12.5775 13.0621875 12.875 13.609375 C13.24625 14.31578125 13.6175 15.0221875 14 15.75 C14.37125 16.44609375 14.7425 17.1421875 15.125 17.859375 C16 20 16 20 16 24 C13 23 13 23 12.05078125 21.15234375 C11.80714844 20.42144531 11.56351563 19.69054687 11.3125 18.9375 C11.06113281 18.20402344 10.80976562 17.47054687 10.55078125 16.71484375 C10.36902344 16.14894531 10.18726562 15.58304688 10 15 C7.69 14.67 5.38 14.34 3 14 C3 17.63 3 21.26 3 25 C2.01 25 1.02 25 0 25 C0 16.75 0 8.5 0 0 Z " fill="#D8D9DC" transform="translate(111,38)"/>
<path d="M0 0 C13.77777778 0 13.77777778 0 18 4 C20.36573729 7.01093837 20.36546655 10.20188013 20.24609375 13.97265625 C19.85242487 17.21573794 18.862112 19.33097279 17 22 C11.30311357 26.27266482 7.88480602 25 0 25 C0 16.75 0 8.5 0 0 Z M3 3 C3 9.27 3 15.54 3 22 C10.51712234 22.37946008 10.51712234 22.37946008 16 19 C17.24445824 15.26662527 17.64032725 11.87209655 17 8 C15.2301177 4.8133497 15.2301177 4.8133497 12 3 C9.03 3 6.06 3 3 3 Z " fill="#CDCFD3" transform="translate(207,38)"/>
<path d="M0 0 C3.4375 0.625 3.4375 0.625 5.875 2.25 C7.4375 4.625 7.4375 4.625 7.4375 10.625 C3.1475 10.625 -1.1425 10.625 -5.5625 10.625 C-4.5725 12.275 -3.5825 13.925 -2.5625 15.625 C0.99180783 16.07874142 4.02577648 15.67476108 7.4375 14.625 C5.6875 18.5 5.6875 18.5 3.4375 19.625 C-0.29921591 19.97099221 -2.68159553 20.15817902 -5.9375 18.1875 C-8.30882152 14.44810837 -8.99673145 11.0358774 -8.5625 6.625 C-6.79732423 2.47810381 -4.4837545 0.7866236 0 0 Z " fill="#EFF0F1" transform="translate(239.5625,43.375)"/>
<path d="M0 0 C2.4375 1.0625 2.4375 1.0625 4 3 C4.25 6.6875 4.25 6.6875 4 10 C-0.29 10 -4.58 10 -9 10 C-8.01 11.65 -7.02 13.3 -6 15 C-2.44569217 15.45374142 0.58827648 15.04976108 4 14 C2.25 17.875 2.25 17.875 0 19 C-3.54231329 19.39359037 -5.61674332 19.17496501 -8.875 17.6875 C-11.79234049 13.99792232 -11.64753702 11.17612449 -11.4140625 6.57421875 C-11 4 -11 4 -9.4375 1.3125 C-6.06285737 -0.50461526 -3.77864401 -0.4723305 0 0 Z " fill="#F8F8F9" transform="translate(143,44)"/>
<path d="M0 0 C0.99 0 1.98 0 3 0 C3.33 4.95 3.66 9.9 4 15 C5.98 15 7.96 15 10 15 C11.41634833 12.16730334 11.3463005 9.52533562 11.5625 6.375 C11.64628906 5.18648437 11.73007813 3.99796875 11.81640625 2.7734375 C11.87699219 1.85820313 11.93757812 0.94296875 12 0 C12.99 0 13.98 0 15 0 C15 6.27 15 12.54 15 19 C14.01 19 13.02 19 12 19 C11.67 18.34 11.34 17.68 11 17 C10.34 17.66 9.68 18.32 9 19 C3.90361446 19.54216867 3.90361446 19.54216867 1.3203125 17.9921875 C-0.7746505 14.83114865 -0.31196267 11.46659623 -0.1875 7.8125 C-0.17396484 7.06291016 -0.16042969 6.31332031 -0.14648438 5.54101562 C-0.11118539 3.69370233 -0.05737917 1.84675934 0 0 Z " fill="#DADBDE" transform="translate(186,44)"/>
<path d="M0 0 C0.99 0 1.98 0 3 0 C3.33 5.28 3.66 10.56 4 16 C6.31 15.34 8.62 14.68 11 14 C11.33 9.38 11.66 4.76 12 0 C12.99 0 13.98 0 15 0 C15 6.27 15 12.54 15 19 C14.34 19 13.68 19 13 19 C12.67 18.34 12.34 17.68 12 17 C11.01 17.66 10.02 18.32 9 19 C5.4375 18.8125 5.4375 18.8125 2 18 C-0.45391569 14.31912647 -0.22802759 11.55644412 -0.125 7.3125 C-0.11597656 6.61060547 -0.10695313 5.90871094 -0.09765625 5.18554688 C-0.07413704 3.45688475 -0.03826713 1.72839855 0 0 Z " fill="#D1D3D6" transform="translate(268,44)"/>
<path d="M0 0 C0.70125 -0.01675781 1.4025 -0.03351562 2.125 -0.05078125 C2.74375 0.06910156 3.3625 0.18898437 4 0.3125 C4.66 1.3025 5.32 2.2925 6 3.3125 C3.13822943 4.74338528 1.06624227 3.91241697 -2 3.3125 C-2.33 4.6325 -2.66 5.9525 -3 7.3125 C-0.98177083 7.76822917 1.03645833 8.22395833 3.0546875 8.6796875 C5 9.3125 5 9.3125 7 11.3125 C7.375 13.75 7.375 13.75 7 16.3125 C4.76218351 18.80852608 3.31953394 19.2659013 0 19.75 C-3.62512706 19.22133564 -4.73025981 18.10602638 -7 15.3125 C-3.66666667 15.3125 -0.33333333 15.3125 3 15.3125 C3 14.3225 3 13.3325 3 12.3125 C-1.455 10.3325 -1.455 10.3325 -6 8.3125 C-6.125 5.4375 -6.125 5.4375 -6 2.3125 C-3.67471713 -0.01278287 -3.15334102 0.01738975 0 0 Z " fill="#E0E1E4" transform="translate(257,43.6875)"/>
<path d="M0 0 C3.25543229 0.34879632 4.01873107 1.02133261 6.25 3.5625 C6.8275 4.366875 7.405 5.17125 8 6 C9.32 4.02 10.64 2.04 12 0 C12.99 0.33 13.98 0.66 15 1 C14.29875 2.03125 13.5975 3.0625 12.875 4.125 C11.14870396 7.12330366 10.9207835 7.63272348 11.6875 11.1875 C12.120625 12.115625 12.55375 13.04375 13 14 C13.34976758 15.32911682 13.69096017 16.66082739 14 18 C10.63279613 16.60667426 9.0140476 15.0210714 7 12 C5.68 14.31 4.36 16.62 3 19 C2.01 19 1.02 19 0 19 C1.12451727 16.0280615 2.22293791 13.66559313 4 11 C3.66470342 6.86467552 1.93736858 3.6220369 0 0 Z " fill="#E2E3E5" transform="translate(167,44)"/>
<path d="M0 0 C3.25543229 0.34879632 4.01873107 1.02133261 6.25 3.5625 C6.8275 4.366875 7.405 5.17125 8 6 C9.32 4.02 10.64 2.04 12 0 C12.99 0.33 13.98 0.66 15 1 C14.29875 2.03125 13.5975 3.0625 12.875 4.125 C11.14870396 7.12330366 10.9207835 7.63272348 11.6875 11.1875 C12.120625 12.115625 12.55375 13.04375 13 14 C13.34976758 15.32911682 13.69096017 16.66082739 14 18 C10.63279613 16.60667426 9.0140476 15.0210714 7 12 C5.68 14.31 4.36 16.62 3 19 C2.01 19 1.02 19 0 19 C1.12451727 16.0280615 2.22293791 13.66559313 4 11 C3.66470342 6.86467552 1.93736858 3.6220369 0 0 Z " fill="#E2E3E5" transform="translate(150,44)"/>
<path d="M0 0 C3.3 0 6.6 0 10 0 C10 0.33 10 0.66 10 1 C7.69 1 5.38 1 3 1 C3 4.3 3 7.6 3 11 C4.98 11 6.96 11 9 11 C9 11.33 9 11.66 9 12 C7.02 12 5.04 12 3 12 C3 15.96 3 19.92 3 24 C2.01 24 1.02 24 0 24 C0 16.08 0 8.16 0 0 Z " fill="#E6E7E9" transform="translate(111,39)"/>
<path d="M0 0 C6.0546875 -0.1953125 6.0546875 -0.1953125 8 0 C8.66 0.66 9.32 1.32 10 2 C9.44444444 6.55555556 9.44444444 6.55555556 8 8 C5.32941149 8.14115161 2.67567762 8.04247107 0 8 C0 5.36 0 2.72 0 0 Z " fill="#020D20" transform="translate(114,41)"/>
<path d="M0 0 C3.3 0 6.6 0 10 0 C10 0.33 10 0.66 10 1 C7.36 1 4.72 1 2 1 C2 7.6 2 14.2 2 21 C4.97 21 7.94 21 11 21 C11 21.66 11 22.32 11 23 C7.37 23 3.74 23 0 23 C0 15.41 0 7.82 0 0 Z " fill="#FDFDFD" transform="translate(208,39)"/>
<path d="M0 0 C0.99 0 1.98 0 3 0 C3 6.27 3 12.54 3 19 C2.01 19 1.02 19 0 19 C-1.0625 17.125 -1.0625 17.125 -2 15 C-1.67 14.34 -1.34 13.68 -1 13 C-0.77049681 10.795636 -0.58924067 8.58607827 -0.4375 6.375 C-0.35371094 5.18648437 -0.26992187 3.99796875 -0.18359375 2.7734375 C-0.12300781 1.85820313 -0.06242188 0.94296875 0 0 Z " fill="#D3D5D8" transform="translate(198,44)"/>
<path d="M0 0 C0.99 0 1.98 0 3 0 C3 6.27 3 12.54 3 19 C2.34 19 1.68 19 1 19 C1 17.68 1 16.36 1 15 C0.34 14.67 -0.32 14.34 -1 14 C-0.67 9.38 -0.34 4.76 0 0 Z " fill="#DCDDE0" transform="translate(280,44)"/>
<path d="M0 0 C2.5625 0.1875 2.5625 0.1875 4.5625 2.1875 C4.5625 3.5075 4.5625 4.8275 4.5625 6.1875 C1.2625 6.1875 -2.0375 6.1875 -5.4375 6.1875 C-3.15091463 0.24237805 -3.15091463 0.24237805 0 0 Z " fill="#1F293A" transform="translate(239.4375,45.8125)"/>
<path d="M0 0 C2.5625 0.1875 2.5625 0.1875 4.5625 2.1875 C4.5625 3.5075 4.5625 4.8275 4.5625 6.1875 C1.5925 6.1875 -1.3775 6.1875 -4.4375 6.1875 C-3.3735 0.2595 -3.3735 0.2595 0 0 Z " fill="#1C2536" transform="translate(139.4375,45.8125)"/>
<path d="M0 0 C3.70237797 0.31917051 5.08801878 0.67403953 7.625 3.3125 C7.625 3.9725 7.625 4.6325 7.625 5.3125 C6.965 5.3125 6.305 5.3125 5.625 5.3125 C5.295 6.3025 4.965 7.2925 4.625 8.3125 C3.965 6.6625 3.305 5.0125 2.625 3.3125 C0.975 3.3125 -0.675 3.3125 -2.375 3.3125 C-3.035 4.9625 -3.695 6.6125 -4.375 8.3125 C-5.365 7.6525 -6.355 6.9925 -7.375 6.3125 C-4.62919355 0.42862903 -4.62919355 0.42862903 0 0 Z " fill="#E7E8E9" transform="translate(139.375,43.6875)"/>
<path d="M0 0 C3 1 3 1 4.1875 3.3125 C5 6 5 6 5 10 C4.01 9.67 3.02 9.34 2 9 C1.26953125 6.93359375 1.26953125 6.93359375 0.8125 4.4375 C0.65394531 3.61121094 0.49539062 2.78492188 0.33203125 1.93359375 C0.16767578 0.97646484 0.16767578 0.97646484 0 0 Z " fill="#ECEDEF" transform="translate(122,52)"/>
<path d="M0 0 C-1.75 3.875 -1.75 3.875 -4 5 C-6.3329866 5.04022391 -8.66706666 5.04320247 -11 5 C-8.19499369 0.79249053 -4.97384386 0 0 0 Z " fill="#C6C8CD" transform="translate(247,58)"/>
<path d="M0 0 C1.8125 0.234375 1.8125 0.234375 4 0.75 C4.721875 0.90984375 5.44375 1.0696875 6.1875 1.234375 C6.785625 1.48703125 7.38375 1.7396875 8 2 C8.33 2.99 8.66 3.98 9 5 C6.25 5.25 6.25 5.25 3 5 C0.625 3 0.625 3 -1 1 C-0.67 0.67 -0.34 0.34 0 0 Z " fill="#D3D5D8" transform="translate(251,58)"/>
<path d="M0 0 C-1.75 3.875 -1.75 3.875 -4 5 C-5.99960012 5.039992 -8.00047242 5.04346799 -10 5 C-9.67 4.01 -9.34 3.02 -9 2 C-5.82757352 0.68964993 -3.44118336 0 0 0 Z " fill="#CCCED2" transform="translate(147,58)"/>
<path d="M0 0 C0.33 0.99 0.66 1.98 1 3 C-2.75 6 -2.75 6 -5 6 C-5.33 5.01 -5.66 4.02 -6 3 C-4.02 2.01 -2.04 1.02 0 0 Z " fill="#DDDFE1" transform="translate(224,56)"/>
<path d="M0 0 C2.875 -0.1875 2.875 -0.1875 6 0 C6.66 0.99 7.32 1.98 8 3 C4.79937313 4.60031344 2.27728194 3.03173691 -1 2 C-0.67 1.34 -0.34 0.68 0 0 Z " fill="#F0F1F2" transform="translate(255,44)"/>
<path d="M0 0 C1.32 0.33 2.64 0.66 4 1 C4.33 2.32 4.66 3.64 5 5 C4.34 5 3.68 5 3 5 C2.67 5.66 2.34 6.32 2 7 C1.34 4.69 0.68 2.38 0 0 Z " fill="#E0E1E4" transform="translate(242,45)"/>
<path d="M0 0 C1.9375 0.3125 1.9375 0.3125 4 1 C4.33 1.99 4.66 2.98 5 4 C4.34 4 3.68 4 3 4 C2.67 4.99 2.34 5.98 2 7 C1.34 4.69 0.68 2.38 0 0 Z " fill="#D3D5D8" transform="translate(142,45)"/>
</svg>
